<svg width="203" height="54" viewBox="0 0 203 54" fill="none" xmlns="http://www.w3.org/2000/svg">
<path d="M29.0662 2.32665V40.0401H24.1406V22.9419H4.92555V40.0401H0V2.32665H4.92555V18.8838H24.1406V2.32665H29.0662Z" fill="#3D3D3D"/>
<path d="M63.0245 10.3888L45.1626 54H40.0747L45.9204 39.7154L33.9583 10.3888H39.4251L48.735 34.4128L57.9366 10.3888H63.0245Z" fill="#3D3D3D"/>
<path d="M66.1355 25.1062C66.1355 22.0762 66.749 19.4249 67.9758 17.1523C69.2027 14.8437 70.8807 13.0581 73.0097 11.7956C75.1747 10.5331 77.5924 9.9018 80.2627 9.9018C82.5721 9.9018 84.7191 10.4429 86.7038 11.5251C88.6884 12.5711 90.204 13.9599 91.2504 15.6914V0H96.2301V40.0401H91.2504V34.4669C90.2761 36.2345 88.8328 37.6954 86.9203 38.8497C85.0078 39.9679 82.7705 40.5271 80.2085 40.5271C77.5744 40.5271 75.1747 39.8778 73.0097 38.5792C70.8807 37.2806 69.2027 35.4589 67.9758 33.1142C66.749 30.7695 66.1355 28.1002 66.1355 25.1062ZM91.2504 25.1603C91.2504 22.9238 90.7994 20.976 89.8973 19.3166C88.9951 17.6573 87.7683 16.3948 86.2166 15.5291C84.7011 14.6273 83.0231 14.1764 81.1828 14.1764C79.3425 14.1764 77.6646 14.6092 76.149 15.4749C74.6335 16.3407 73.4246 17.6032 72.5225 19.2625C71.6204 20.9218 71.1693 22.8697 71.1693 25.1062C71.1693 27.3788 71.6204 29.3627 72.5225 31.0581C73.4246 32.7174 74.6335 33.998 76.149 34.8998C77.6646 35.7655 79.3425 36.1984 81.1828 36.1984C83.0231 36.1984 84.7011 35.7655 86.2166 34.8998C87.7683 33.998 88.9951 32.7174 89.8973 31.0581C90.7994 29.3627 91.2504 27.3968 91.2504 25.1603Z" fill="#3D3D3D"/>
<path d="M109.479 15.2044C110.345 13.509 111.572 12.1924 113.16 11.2545C114.784 10.3166 116.75 9.84769 119.06 9.84769V14.9339H117.761C112.24 14.9339 109.479 17.9279 109.479 23.9158V40.0401H104.554V10.3888H109.479V15.2044Z" fill="#3D3D3D"/>
<path d="M122.905 25.1062C122.905 22.0762 123.519 19.4249 124.746 17.1523C125.973 14.8437 127.651 13.0581 129.78 11.7956C131.945 10.5331 134.344 9.9018 136.978 9.9018C139.577 9.9018 141.832 10.4609 143.744 11.5792C145.657 12.6974 147.082 14.1042 148.02 15.7996V10.3888H153V40.0401H148.02V34.521C147.046 36.2525 145.585 37.6954 143.636 38.8497C141.724 39.9679 139.486 40.5271 136.924 40.5271C134.29 40.5271 131.909 39.8778 129.78 38.5792C127.651 37.2806 125.973 35.4589 124.746 33.1142C123.519 30.7695 122.905 28.1002 122.905 25.1062ZM148.02 25.1603C148.02 22.9238 147.569 20.976 146.667 19.3166C145.765 17.6573 144.538 16.3948 142.987 15.5291C141.471 14.6273 139.793 14.1764 137.953 14.1764C136.112 14.1764 134.434 14.6092 132.919 15.4749C131.403 16.3407 130.195 17.6032 129.292 19.2625C128.39 20.9218 127.939 22.8697 127.939 25.1062C127.939 27.3788 128.39 29.3627 129.292 31.0581C130.195 32.7174 131.403 33.998 132.919 34.8998C134.434 35.7655 136.112 36.1984 137.953 36.1984C139.793 36.1984 141.471 35.7655 142.987 34.8998C144.538 33.998 145.765 32.7174 146.667 31.0581C147.569 29.3627 148.02 27.3968 148.02 25.1603Z" fill="#3D3D3D"/>
<path d="M192.259 40L184.541 28.3618L177.741 40H167.27L179.414 20.6752L167 2H177.741L185.351 13.4758L192.043 2H202.514L190.478 21.1624L203 40H192.259Z" fill="#326EB4"/>
</svg>
